<svg width="1000" height="1000" version = "1.1"  xmlns="http://www.w3.org/2000/svg">
  <line x1 = "0" y1 = "0" x2 = "1000" y2 = "0" stroke = "black" stroke-width = "1"/>

  <line x1 = "0" y1 = "25" x2 = "1000" y2 = "25" stroke = "black" stroke-width = "1"/>

  <line x1 = "0" y1 = "50" x2 = "1000" y2 = "50" stroke = "black" stroke-width = "1"/>

  <line x1 = "0" y1 = "75" x2 = "1000" y2 = "75" stroke = "black" stroke-width = "1"/>

  <line x1 = "0" y1 = "100" x2 = "1000" y2 = "100" stroke = "black" stroke-width = "1"/>

  <line x1 = "0" y1 = "125" x2 = "1000" y2 = "125" stroke = "black" stroke-width = "1"/>

  <line x1 = "0" y1 = "150" x2 = "1000" y2 = "150" stroke = "black" stroke-width = "1"/>

  <line x1 = "0" y1 = "175" x2 = "1000" y2 = "175" stroke = "black" stroke-width = "1"/>

  <line x1 = "0" y1 = "200" x2 = "1000" y2 = "200" stroke = "black" stroke-width = "1"/>

  <line x1 = "0" y1 = "225" x2 = "1000" y2 = "225" stroke = "black" stroke-width = "1"/>

  <line x1 = "0" y1 = "250" x2 = "1000" y2 = "250" stroke = "black" stroke-width = "1"/>

  <line x1 = "0" y1 = "275" x2 = "1000" y2 = "275" stroke = "black" stroke-width = "1"/>

  <line x1 = "0" y1 = "300" x2 = "1000" y2 = "300" stroke = "black" stroke-width = "1"/>

  <line x1 = "0" y1 = "325" x2 = "1000" y2 = "325" stroke = "black" stroke-width = "1"/>

  <line x1 = "0" y1 = "350" x2 = "1000" y2 = "350" stroke = "black" stroke-width = "1"/>

  <line x1 = "0" y1 = "375" x2 = "1000" y2 = "375" stroke = "black" stroke-width = "1"/>

  <line x1 = "0" y1 = "400" x2 = "1000" y2 = "400" stroke = "black" stroke-width = "1"/>

  <line x1 = "0" y1 = "425" x2 = "1000" y2 = "425" stroke = "black" stroke-width = "1"/>

  <line x1 = "0" y1 = "450" x2 = "1000" y2 = "450" stroke = "black" stroke-width = "1"/>

  <line x1 = "0" y1 = "475" x2 = "1000" y2 = "475" stroke = "black" stroke-width = "1"/>

  <line x1 = "0" y1 = "500" x2 = "1000" y2 = "500" stroke = "black" stroke-width = "1"/>

  <line x1 = "0" y1 = "525" x2 = "1000" y2 = "525" stroke = "black" stroke-width = "1"/>

  <line x1 = "0" y1 = "550" x2 = "1000" y2 = "550" stroke = "black" stroke-width = "1"/>

  <line x1 = "0" y1 = "575" x2 = "1000" y2 = "575" stroke = "black" stroke-width = "1"/>

  <line x1 = "0" y1 = "600" x2 = "1000" y2 = "600" stroke = "black" stroke-width = "1"/>

  <line x1 = "0" y1 = "625" x2 = "1000" y2 = "625" stroke = "black" stroke-width = "1"/>

  <line x1 = "0" y1 = "650" x2 = "1000" y2 = "650" stroke = "black" stroke-width = "1"/>

  <line x1 = "0" y1 = "675" x2 = "1000" y2 = "675" stroke = "black" stroke-width = "1"/>

  <line x1 = "0" y1 = "700" x2 = "1000" y2 = "700" stroke = "black" stroke-width = "1"/>

  <line x1 = "0" y1 = "725" x2 = "1000" y2 = "725" stroke = "black" stroke-width = "1"/>

  <line x1 = "0" y1 = "750" x2 = "1000" y2 = "750" stroke = "black" stroke-width = "1"/>

  <line x1 = "0" y1 = "775" x2 = "1000" y2 = "775" stroke = "black" stroke-width = "1"/>

  <line x1 = "0" y1 = "800" x2 = "1000" y2 = "800" stroke = "black" stroke-width = "1"/>

  <line x1 = "0" y1 = "825" x2 = "1000" y2 = "825" stroke = "black" stroke-width = "1"/>

  <line x1 = "0" y1 = "850" x2 = "1000" y2 = "850" stroke = "black" stroke-width = "1"/>

  <line x1 = "0" y1 = "875" x2 = "1000" y2 = "875" stroke = "black" stroke-width = "1"/>

  <line x1 = "0" y1 = "900" x2 = "1000" y2 = "900" stroke = "black" stroke-width = "1"/>

  <line x1 = "0" y1 = "925" x2 = "1000" y2 = "925" stroke = "black" stroke-width = "1"/>

  <line x1 = "0" y1 = "950" x2 = "1000" y2 = "950" stroke = "black" stroke-width = "1"/>

  <line x1 = "0" y1 = "975" x2 = "1000" y2 = "975" stroke = "black" stroke-width = "1"/>

  <line x1 = "0" y1 = "1000" x2 = "1000" y2 = "1000" stroke = "black" stroke-width = "1"/>

</svg>