<svg width="1000" height="1000" version = "1.1"  xmlns="http://www.w3.org/2000/svg">

  <line x1 = "0" y1 = "0" x2 = "0" y2 = "1000" stroke = "black" stroke-width = "1"/>

  <line x1 = "25" y1 = "0" x2 = "25" y2 = "1000" stroke = "black" stroke-width = "1"/>

  <line x1 = "50" y1 = "0" x2 = "50" y2 = "1000" stroke = "black" stroke-width = "1"/>

  <line x1 = "75" y1 = "0" x2 = "75" y2 = "1000" stroke = "black" stroke-width = "1"/>

  <line x1 = "100" y1 = "0" x2 = "100" y2 = "1000" stroke = "black" stroke-width = "1"/>

  <line x1 = "125" y1 = "0" x2 = "125" y2 = "1000" stroke = "black" stroke-width = "1"/>

  <line x1 = "150" y1 = "0" x2 = "150" y2 = "1000" stroke = "black" stroke-width = "1"/>

  <line x1 = "175" y1 = "0" x2 = "175" y2 = "1000" stroke = "black" stroke-width = "1"/>

  <line x1 = "200" y1 = "0" x2 = "200" y2 = "1000" stroke = "black" stroke-width = "1"/>

  <line x1 = "225" y1 = "0" x2 = "225" y2 = "1000" stroke = "black" stroke-width = "1"/>

  <line x1 = "250" y1 = "0" x2 = "250" y2 = "1000" stroke = "black" stroke-width = "1"/>

  <line x1 = "275" y1 = "0" x2 = "275" y2 = "1000" stroke = "black" stroke-width = "1"/>

  <line x1 = "300" y1 = "0" x2 = "300" y2 = "1000" stroke = "black" stroke-width = "1"/>

  <line x1 = "325" y1 = "0" x2 = "325" y2 = "1000" stroke = "black" stroke-width = "1"/>

  <line x1 = "350" y1 = "0" x2 = "350" y2 = "1000" stroke = "black" stroke-width = "1"/>

  <line x1 = "375" y1 = "0" x2 = "375" y2 = "1000" stroke = "black" stroke-width = "1"/>

  <line x1 = "400" y1 = "0" x2 = "400" y2 = "1000" stroke = "black" stroke-width = "1"/>

  <line x1 = "425" y1 = "0" x2 = "425" y2 = "1000" stroke = "black" stroke-width = "1"/>

  <line x1 = "450" y1 = "0" x2 = "450" y2 = "1000" stroke = "black" stroke-width = "1"/>

  <line x1 = "475" y1 = "0" x2 = "475" y2 = "1000" stroke = "black" stroke-width = "1"/>

  <line x1 = "500" y1 = "0" x2 = "500" y2 = "1000" stroke = "black" stroke-width = "1"/>

  <line x1 = "525" y1 = "0" x2 = "525" y2 = "1000" stroke = "black" stroke-width = "1"/>

  <line x1 = "550" y1 = "0" x2 = "550" y2 = "1000" stroke = "black" stroke-width = "1"/>

  <line x1 = "575" y1 = "0" x2 = "575" y2 = "1000" stroke = "black" stroke-width = "1"/>

  <line x1 = "600" y1 = "0" x2 = "600" y2 = "1000" stroke = "black" stroke-width = "1"/>

  <line x1 = "625" y1 = "0" x2 = "625" y2 = "1000" stroke = "black" stroke-width = "1"/>

  <line x1 = "650" y1 = "0" x2 = "650" y2 = "1000" stroke = "black" stroke-width = "1"/>

  <line x1 = "675" y1 = "0" x2 = "675" y2 = "1000" stroke = "black" stroke-width = "1"/>

  <line x1 = "700" y1 = "0" x2 = "700" y2 = "1000" stroke = "black" stroke-width = "1"/>

  <line x1 = "725" y1 = "0" x2 = "725" y2 = "1000" stroke = "black" stroke-width = "1"/>

  <line x1 = "750" y1 = "0" x2 = "750" y2 = "1000" stroke = "black" stroke-width = "1"/>

  <line x1 = "775" y1 = "0" x2 = "775" y2 = "1000" stroke = "black" stroke-width = "1"/>

  <line x1 = "800" y1 = "0" x2 = "800" y2 = "1000" stroke = "black" stroke-width = "1"/>

  <line x1 = "825" y1 = "0" x2 = "825" y2 = "1000" stroke = "black" stroke-width = "1"/>

  <line x1 = "850" y1 = "0" x2 = "850" y2 = "1000" stroke = "black" stroke-width = "1"/>

  <line x1 = "875" y1 = "0" x2 = "875" y2 = "1000" stroke = "black" stroke-width = "1"/>

  <line x1 = "900" y1 = "0" x2 = "900" y2 = "1000" stroke = "black" stroke-width = "1"/>

  <line x1 = "925" y1 = "0" x2 = "925" y2 = "1000" stroke = "black" stroke-width = "1"/>

  <line x1 = "950" y1 = "0" x2 = "950" y2 = "1000" stroke = "black" stroke-width = "1"/>

  <line x1 = "975" y1 = "0" x2 = "975" y2 = "1000" stroke = "black" stroke-width = "1"/>

  <line x1 = "1000" y1 = "0" x2 = "1000" y2 = "1000" stroke = "black" stroke-width = "1"/>






</svg>